<?xml version="1.0" encoding="UTF-8" standalone="no"?>
<!DOCTYPE svg PUBLIC "-//W3C//DTD SVG 1.1//EN" "http://www.w3.org/Graphics/SVG/1.1/DTD/svg11.dtd">
<svg width="100%" height="100%" viewBox="0 0 1440 876" version="1.1" xmlns="http://www.w3.org/2000/svg" xmlns:xlink="http://www.w3.org/1999/xlink" xml:space="preserve" xmlns:serif="http://www.serif.com/" style="fill-rule:evenodd;clip-rule:evenodd;">
    <g>
        <clipPath id="_clip1">
            <rect x="0" y="0" width="1440" height="876"/>
        </clipPath>
        <g clip-path="url(#_clip1)">
            <rect x="0" y="0" width="1440" height="876" style="fill:rgb(4,1,18);fill-rule:nonzero;"/>
            <path d="M2072.65,305.709C2095.38,-9.083 1559.77,-304.278 876.33,-353.627C192.891,-402.976 -379.572,-187.792 -402.302,127C-425.033,441.792 110.578,736.987 794.017,786.337C1477.46,835.686 2049.92,620.501 2072.65,305.709Z" style="fill:none;fill-rule:nonzero;stroke:url(#_Linear2);stroke-width:1px;"/>
            <path d="M2027.16,239.986C2036.08,-67.784 1501.53,-332.98 833.216,-352.349C164.899,-371.717 -384.11,-137.922 -393.029,169.847C-401.948,477.616 132.599,742.814 800.916,762.182C1469.23,781.55 2018.24,547.755 2027.16,239.986Z" style="fill:none;fill-rule:nonzero;stroke:url(#_Linear3);stroke-width:1px;"/>
            <path d="M808.291,738.348C1461.38,727.746 1986.85,475.315 1981.96,174.527C1977.08,-126.26 1443.69,-361.503 790.609,-350.902C137.525,-340.3 -387.947,-87.869 -383.064,212.919C-378.181,513.707 155.206,748.949 808.291,738.348Z" style="fill:none;fill-rule:nonzero;stroke:url(#_Linear4);stroke-width:1px;"/>
            <path d="M815.349,714.312C1453.27,673.73 1955.26,402.655 1936.57,108.85C1917.88,-184.956 1385.59,-390.235 747.664,-349.653C109.741,-309.071 -392.246,-37.996 -373.555,255.809C-354.865,549.615 177.426,754.894 815.349,714.312Z" style="fill:none;fill-rule:nonzero;stroke:url(#_Linear5);stroke-width:1px;"/>
            <path d="M822.268,690.364C1445.1,619.841 1923.69,330.188 1891.22,43.406C1858.75,-243.376 1327.51,-418.689 704.677,-348.166C81.841,-277.643 -396.744,12.01 -364.272,298.792C-331.8,585.574 199.432,760.886 822.268,690.364Z" style="fill:none;fill-rule:nonzero;stroke:url(#_Linear6);stroke-width:1px;"/>
            <path d="M829.052,666.611C1436.69,566.127 1891.76,257.801 1845.48,-22.054C1799.2,-301.91 1269.1,-447.318 661.459,-346.834C53.824,-246.349 -401.246,61.977 -354.966,341.832C-308.687,621.687 221.416,767.096 829.052,666.611Z" style="fill:none;fill-rule:nonzero;stroke:url(#_Linear7);stroke-width:1px;"/>
            <path d="M836.188,642.545C1428.7,512.057 1860.31,185.126 1800.23,-87.677C1740.15,-360.479 1211.13,-475.848 618.622,-345.36C26.115,-214.872 -405.504,112.059 -345.424,384.862C-285.345,657.665 243.681,773.033 836.188,642.545Z" style="fill:none;fill-rule:nonzero;stroke:url(#_Linear8);stroke-width:1px;"/>
            <path d="M843.137,618.704C1420.44,458.278 1828.54,112.7 1754.66,-153.168C1680.77,-419.035 1152.89,-504.514 575.588,-344.089C-1.712,-183.664 -409.814,161.915 -335.932,427.783C-262.051,693.65 265.837,779.129 843.137,618.704Z" style="fill:none;fill-rule:nonzero;stroke:url(#_Linear9);stroke-width:1px;"/>
            <path d="M850.281,594.491C1412.37,404.016 1796.93,39.789 1709.22,-219.033C1621.51,-477.856 1094.75,-533.263 532.665,-342.788C-29.422,-152.314 -413.982,211.913 -326.274,470.736C-238.567,729.558 288.195,784.965 850.281,594.491Z" style="fill:none;fill-rule:nonzero;stroke:url(#_Linear10);stroke-width:1px;"/>
            <path d="M857.348,570.614C1404.32,350.179 1765.44,-32.684 1663.94,-284.535C1562.44,-536.386 1036.76,-561.854 489.788,-341.419C-57.182,-120.985 -418.306,261.879 -316.807,513.73C-215.308,765.581 310.379,791.049 857.348,570.614Z" style="fill:none;fill-rule:nonzero;stroke:url(#_Linear11);stroke-width:1px;"/>
            <path d="M864.354,546.867C1396.16,296.506 1733.8,-105.002 1618.49,-349.926C1503.19,-594.85 978.602,-590.442 446.799,-340.081C-85.005,-89.72 -422.644,311.788 -307.34,556.712C-192.035,801.636 332.55,797.228 864.354,546.867Z" style="fill:none;fill-rule:nonzero;stroke:url(#_Linear12);stroke-width:1px;"/>
            <path d="M871.479,522.744C1388.09,242.365 1702.2,-177.803 1573.07,-415.729C1443.94,-653.654 920.469,-619.239 403.86,-338.86C-112.748,-58.482 -426.861,361.687 -297.732,599.612C-168.603,837.538 354.871,803.123 871.479,522.744Z" style="fill:none;fill-rule:nonzero;stroke:url(#_Linear13);stroke-width:1px;"/>
            <path d="M878.397,498.831C1379.86,188.514 1670.55,-250.23 1527.67,-481.13C1384.78,-712.03 862.431,-647.649 360.964,-337.331C-140.504,-27.014 -431.193,411.73 -288.307,642.63C-145.422,873.53 376.929,809.149 878.397,498.831Z" style="fill:none;fill-rule:nonzero;stroke:url(#_Linear14);stroke-width:1px;"/>
            <path d="M885.552,474.659C1371.84,134.284 1639.02,-323.139 1482.31,-547.024C1325.6,-770.908 804.351,-676.474 318.064,-336.099C-168.223,4.277 -435.4,461.7 -278.693,685.584C-121.985,909.469 399.265,815.035 885.552,474.659Z" style="fill:none;fill-rule:nonzero;stroke:url(#_Linear15);stroke-width:1px;"/>
            <path d="M892.386,450.536C1363.52,80.191 1607.2,-395.898 1436.67,-612.839C1266.14,-829.779 745.97,-705.42 274.837,-335.074C-196.295,35.271 -439.981,511.36 -269.449,728.301C-98.918,945.241 421.254,820.882 892.386,450.536Z" style="fill:none;fill-rule:nonzero;stroke:url(#_Linear16);stroke-width:1px;"/>
            <path d="M899.207,426.746C1355.21,26.418 1575.48,-468.288 1391.19,-678.21C1206.9,-888.133 687.833,-733.778 231.828,-333.45C-224.177,66.878 -444.444,561.584 -260.153,771.506C-75.861,981.429 443.202,827.074 899.207,426.746Z" style="fill:none;fill-rule:nonzero;stroke:url(#_Linear17);stroke-width:1px;"/>
            <path d="M906.247,402.707C1347.02,-27.58 1543.77,-540.888 1345.69,-743.798C1147.61,-946.708 629.71,-762.383 188.933,-332.096C-251.845,98.191 -448.589,611.499 -250.509,814.409C-52.428,1017.32 465.469,832.994 906.247,402.707Z" style="fill:none;fill-rule:nonzero;stroke:url(#_Linear18);stroke-width:1px;"/>
            <path d="M913.313,378.765C1338.94,-81.513 1512.2,-613.49 1300.29,-809.439C1088.39,-1005.39 571.574,-791.106 145.948,-330.828C-279.678,129.45 -452.935,661.428 -241.033,857.376C-29.131,1053.33 487.687,839.044 913.313,378.765Z" style="fill:none;fill-rule:nonzero;stroke:url(#_Linear19);stroke-width:1px;"/>
            <path d="M920.231,354.755C1330.71,-135.481 1480.55,-686.063 1254.9,-875.004C1029.25,-1063.95 513.56,-819.698 103.077,-329.462C-307.406,160.774 -457.242,711.356 -231.591,900.298C-5.941,1089.24 509.748,844.991 920.231,354.755Z" style="fill:none;fill-rule:nonzero;stroke:url(#_Linear20);stroke-width:1px;"/>
            <path d="M927.246,330.652C1322.54,-189.557 1448.87,-758.769 1209.42,-940.719C969.97,-1122.67 455.412,-848.456 60.122,-328.247C-335.168,191.963 -461.501,761.175 -222.051,943.125C17.399,1125.08 531.956,850.862 927.246,330.652Z" style="fill:none;fill-rule:nonzero;stroke:url(#_Linear21);stroke-width:1px;"/>
            <path d="M934.269,306.673C1314.36,-243.485 1417.2,-831.311 1163.95,-1006.27C910.708,-1181.24 397.285,-877.081 17.19,-326.924C-362.907,223.234 -465.74,811.06 -212.495,986.022C40.751,1160.99 554.174,856.83 934.269,306.673Z" style="fill:none;fill-rule:nonzero;stroke:url(#_Linear22);stroke-width:1px;"/>
            <path d="M941.337,283.109C1306.37,-297.001 1385.8,-903.496 1118.75,-1071.54C851.7,-1239.58 339.297,-905.527 -25.735,-325.417C-390.767,254.693 -470.198,861.188 -203.148,1029.23C63.902,1197.27 576.305,863.219 941.337,283.109Z" style="fill:none;fill-rule:nonzero;stroke:url(#_Linear23);stroke-width:1px;"/>
        </g>
    </g>
    <defs>
        <linearGradient id="_Linear2" x1="0" y1="0" x2="1" y2="0" gradientUnits="userSpaceOnUse" gradientTransform="matrix(1.33957e-13,2187.69,-2187.69,1.33957e-13,835.173,-1115)"><stop offset="0" style="stop-color:rgb(236,26,240);stop-opacity:1"/><stop offset="0.48" style="stop-color:rgb(240,26,60);stop-opacity:1"/><stop offset="0.83" style="stop-color:rgb(240,212,26);stop-opacity:1"/><stop offset="0.87" style="stop-color:rgb(249,115,22);stop-opacity:1"/><stop offset="1" style="stop-color:rgb(158,240,26);stop-opacity:1"/></linearGradient>
        <linearGradient id="_Linear3" x1="0" y1="0" x2="1" y2="0" gradientUnits="userSpaceOnUse" gradientTransform="matrix(1.33957e-13,2187.69,-2187.69,1.33957e-13,835.173,-1115)"><stop offset="0" style="stop-color:rgb(236,26,240);stop-opacity:1"/><stop offset="0.48" style="stop-color:rgb(240,26,60);stop-opacity:1"/><stop offset="0.83" style="stop-color:rgb(240,212,26);stop-opacity:1"/><stop offset="0.87" style="stop-color:rgb(249,115,22);stop-opacity:1"/><stop offset="1" style="stop-color:rgb(158,240,26);stop-opacity:1"/></linearGradient>
        <linearGradient id="_Linear4" x1="0" y1="0" x2="1" y2="0" gradientUnits="userSpaceOnUse" gradientTransform="matrix(1.33957e-13,2187.69,-2187.69,1.33957e-13,835.173,-1115)"><stop offset="0" style="stop-color:rgb(236,26,240);stop-opacity:1"/><stop offset="0.48" style="stop-color:rgb(240,26,60);stop-opacity:1"/><stop offset="0.83" style="stop-color:rgb(240,212,26);stop-opacity:1"/><stop offset="0.87" style="stop-color:rgb(249,115,22);stop-opacity:1"/><stop offset="1" style="stop-color:rgb(158,240,26);stop-opacity:1"/></linearGradient>
        <linearGradient id="_Linear5" x1="0" y1="0" x2="1" y2="0" gradientUnits="userSpaceOnUse" gradientTransform="matrix(1.33957e-13,2187.69,-2187.69,1.33957e-13,835.173,-1115)"><stop offset="0" style="stop-color:rgb(236,26,240);stop-opacity:1"/><stop offset="0.48" style="stop-color:rgb(240,26,60);stop-opacity:1"/><stop offset="0.83" style="stop-color:rgb(240,212,26);stop-opacity:1"/><stop offset="0.87" style="stop-color:rgb(249,115,22);stop-opacity:1"/><stop offset="1" style="stop-color:rgb(158,240,26);stop-opacity:1"/></linearGradient>
        <linearGradient id="_Linear6" x1="0" y1="0" x2="1" y2="0" gradientUnits="userSpaceOnUse" gradientTransform="matrix(1.33957e-13,2187.69,-2187.69,1.33957e-13,835.173,-1115)"><stop offset="0" style="stop-color:rgb(236,26,240);stop-opacity:1"/><stop offset="0.48" style="stop-color:rgb(240,26,60);stop-opacity:1"/><stop offset="0.83" style="stop-color:rgb(240,212,26);stop-opacity:1"/><stop offset="0.87" style="stop-color:rgb(249,115,22);stop-opacity:1"/><stop offset="1" style="stop-color:rgb(158,240,26);stop-opacity:1"/></linearGradient>
        <linearGradient id="_Linear7" x1="0" y1="0" x2="1" y2="0" gradientUnits="userSpaceOnUse" gradientTransform="matrix(1.33957e-13,2187.69,-2187.69,1.33957e-13,835.173,-1115)"><stop offset="0" style="stop-color:rgb(236,26,240);stop-opacity:1"/><stop offset="0.48" style="stop-color:rgb(240,26,60);stop-opacity:1"/><stop offset="0.83" style="stop-color:rgb(240,212,26);stop-opacity:1"/><stop offset="0.87" style="stop-color:rgb(249,115,22);stop-opacity:1"/><stop offset="1" style="stop-color:rgb(158,240,26);stop-opacity:1"/></linearGradient>
        <linearGradient id="_Linear8" x1="0" y1="0" x2="1" y2="0" gradientUnits="userSpaceOnUse" gradientTransform="matrix(1.33957e-13,2187.69,-2187.69,1.33957e-13,835.173,-1115)"><stop offset="0" style="stop-color:rgb(236,26,240);stop-opacity:1"/><stop offset="0.48" style="stop-color:rgb(240,26,60);stop-opacity:1"/><stop offset="0.83" style="stop-color:rgb(240,212,26);stop-opacity:1"/><stop offset="0.87" style="stop-color:rgb(249,115,22);stop-opacity:1"/><stop offset="1" style="stop-color:rgb(158,240,26);stop-opacity:1"/></linearGradient>
        <linearGradient id="_Linear9" x1="0" y1="0" x2="1" y2="0" gradientUnits="userSpaceOnUse" gradientTransform="matrix(1.33957e-13,2187.69,-2187.69,1.33957e-13,835.173,-1115)"><stop offset="0" style="stop-color:rgb(236,26,240);stop-opacity:1"/><stop offset="0.48" style="stop-color:rgb(240,26,60);stop-opacity:1"/><stop offset="0.83" style="stop-color:rgb(240,212,26);stop-opacity:1"/><stop offset="0.87" style="stop-color:rgb(249,115,22);stop-opacity:1"/><stop offset="1" style="stop-color:rgb(158,240,26);stop-opacity:1"/></linearGradient>
        <linearGradient id="_Linear10" x1="0" y1="0" x2="1" y2="0" gradientUnits="userSpaceOnUse" gradientTransform="matrix(1.33957e-13,2187.69,-2187.69,1.33957e-13,835.173,-1115)"><stop offset="0" style="stop-color:rgb(236,26,240);stop-opacity:1"/><stop offset="0.48" style="stop-color:rgb(240,26,60);stop-opacity:1"/><stop offset="0.83" style="stop-color:rgb(240,212,26);stop-opacity:1"/><stop offset="0.87" style="stop-color:rgb(249,115,22);stop-opacity:1"/><stop offset="1" style="stop-color:rgb(158,240,26);stop-opacity:1"/></linearGradient>
        <linearGradient id="_Linear11" x1="0" y1="0" x2="1" y2="0" gradientUnits="userSpaceOnUse" gradientTransform="matrix(1.33957e-13,2187.69,-2187.69,1.33957e-13,835.173,-1115)"><stop offset="0" style="stop-color:rgb(236,26,240);stop-opacity:1"/><stop offset="0.48" style="stop-color:rgb(240,26,60);stop-opacity:1"/><stop offset="0.83" style="stop-color:rgb(240,212,26);stop-opacity:1"/><stop offset="0.87" style="stop-color:rgb(249,115,22);stop-opacity:1"/><stop offset="1" style="stop-color:rgb(158,240,26);stop-opacity:1"/></linearGradient>
        <linearGradient id="_Linear12" x1="0" y1="0" x2="1" y2="0" gradientUnits="userSpaceOnUse" gradientTransform="matrix(1.33957e-13,2187.69,-2187.69,1.33957e-13,835.173,-1115)"><stop offset="0" style="stop-color:rgb(236,26,240);stop-opacity:1"/><stop offset="0.48" style="stop-color:rgb(240,26,60);stop-opacity:1"/><stop offset="0.83" style="stop-color:rgb(240,212,26);stop-opacity:1"/><stop offset="0.87" style="stop-color:rgb(249,115,22);stop-opacity:1"/><stop offset="1" style="stop-color:rgb(158,240,26);stop-opacity:1"/></linearGradient>
        <linearGradient id="_Linear13" x1="0" y1="0" x2="1" y2="0" gradientUnits="userSpaceOnUse" gradientTransform="matrix(1.33957e-13,2187.69,-2187.69,1.33957e-13,835.173,-1115)"><stop offset="0" style="stop-color:rgb(236,26,240);stop-opacity:1"/><stop offset="0.48" style="stop-color:rgb(240,26,60);stop-opacity:1"/><stop offset="0.83" style="stop-color:rgb(240,212,26);stop-opacity:1"/><stop offset="0.87" style="stop-color:rgb(249,115,22);stop-opacity:1"/><stop offset="1" style="stop-color:rgb(158,240,26);stop-opacity:1"/></linearGradient>
        <linearGradient id="_Linear14" x1="0" y1="0" x2="1" y2="0" gradientUnits="userSpaceOnUse" gradientTransform="matrix(1.33957e-13,2187.69,-2187.69,1.33957e-13,835.173,-1115)"><stop offset="0" style="stop-color:rgb(236,26,240);stop-opacity:1"/><stop offset="0.48" style="stop-color:rgb(240,26,60);stop-opacity:1"/><stop offset="0.83" style="stop-color:rgb(240,212,26);stop-opacity:1"/><stop offset="0.87" style="stop-color:rgb(249,115,22);stop-opacity:1"/><stop offset="1" style="stop-color:rgb(158,240,26);stop-opacity:1"/></linearGradient>
        <linearGradient id="_Linear15" x1="0" y1="0" x2="1" y2="0" gradientUnits="userSpaceOnUse" gradientTransform="matrix(1.33957e-13,2187.69,-2187.69,1.33957e-13,835.173,-1115)"><stop offset="0" style="stop-color:rgb(236,26,240);stop-opacity:1"/><stop offset="0.48" style="stop-color:rgb(240,26,60);stop-opacity:1"/><stop offset="0.83" style="stop-color:rgb(240,212,26);stop-opacity:1"/><stop offset="0.87" style="stop-color:rgb(249,115,22);stop-opacity:1"/><stop offset="1" style="stop-color:rgb(158,240,26);stop-opacity:1"/></linearGradient>
        <linearGradient id="_Linear16" x1="0" y1="0" x2="1" y2="0" gradientUnits="userSpaceOnUse" gradientTransform="matrix(1.33957e-13,2187.69,-2187.69,1.33957e-13,835.173,-1115)"><stop offset="0" style="stop-color:rgb(236,26,240);stop-opacity:1"/><stop offset="0.48" style="stop-color:rgb(240,26,60);stop-opacity:1"/><stop offset="0.83" style="stop-color:rgb(240,212,26);stop-opacity:1"/><stop offset="0.87" style="stop-color:rgb(249,115,22);stop-opacity:1"/><stop offset="1" style="stop-color:rgb(158,240,26);stop-opacity:1"/></linearGradient>
        <linearGradient id="_Linear17" x1="0" y1="0" x2="1" y2="0" gradientUnits="userSpaceOnUse" gradientTransform="matrix(1.33957e-13,2187.69,-2187.69,1.33957e-13,835.173,-1115)"><stop offset="0" style="stop-color:rgb(236,26,240);stop-opacity:1"/><stop offset="0.48" style="stop-color:rgb(240,26,60);stop-opacity:1"/><stop offset="0.83" style="stop-color:rgb(240,212,26);stop-opacity:1"/><stop offset="0.87" style="stop-color:rgb(249,115,22);stop-opacity:1"/><stop offset="1" style="stop-color:rgb(158,240,26);stop-opacity:1"/></linearGradient>
        <linearGradient id="_Linear18" x1="0" y1="0" x2="1" y2="0" gradientUnits="userSpaceOnUse" gradientTransform="matrix(1.33957e-13,2187.69,-2187.69,1.33957e-13,835.173,-1115)"><stop offset="0" style="stop-color:rgb(236,26,240);stop-opacity:1"/><stop offset="0.48" style="stop-color:rgb(240,26,60);stop-opacity:1"/><stop offset="0.83" style="stop-color:rgb(240,212,26);stop-opacity:1"/><stop offset="0.87" style="stop-color:rgb(249,115,22);stop-opacity:1"/><stop offset="1" style="stop-color:rgb(158,240,26);stop-opacity:1"/></linearGradient>
        <linearGradient id="_Linear19" x1="0" y1="0" x2="1" y2="0" gradientUnits="userSpaceOnUse" gradientTransform="matrix(1.33957e-13,2187.69,-2187.69,1.33957e-13,835.173,-1115)"><stop offset="0" style="stop-color:rgb(236,26,240);stop-opacity:1"/><stop offset="0.48" style="stop-color:rgb(240,26,60);stop-opacity:1"/><stop offset="0.83" style="stop-color:rgb(240,212,26);stop-opacity:1"/><stop offset="0.87" style="stop-color:rgb(249,115,22);stop-opacity:1"/><stop offset="1" style="stop-color:rgb(158,240,26);stop-opacity:1"/></linearGradient>
        <linearGradient id="_Linear20" x1="0" y1="0" x2="1" y2="0" gradientUnits="userSpaceOnUse" gradientTransform="matrix(1.33957e-13,2187.69,-2187.69,1.33957e-13,835.173,-1115)"><stop offset="0" style="stop-color:rgb(236,26,240);stop-opacity:1"/><stop offset="0.48" style="stop-color:rgb(240,26,60);stop-opacity:1"/><stop offset="0.83" style="stop-color:rgb(240,212,26);stop-opacity:1"/><stop offset="0.87" style="stop-color:rgb(249,115,22);stop-opacity:1"/><stop offset="1" style="stop-color:rgb(158,240,26);stop-opacity:1"/></linearGradient>
        <linearGradient id="_Linear21" x1="0" y1="0" x2="1" y2="0" gradientUnits="userSpaceOnUse" gradientTransform="matrix(1.33957e-13,2187.69,-2187.69,1.33957e-13,835.173,-1115)"><stop offset="0" style="stop-color:rgb(236,26,240);stop-opacity:1"/><stop offset="0.48" style="stop-color:rgb(240,26,60);stop-opacity:1"/><stop offset="0.83" style="stop-color:rgb(240,212,26);stop-opacity:1"/><stop offset="0.87" style="stop-color:rgb(249,115,22);stop-opacity:1"/><stop offset="1" style="stop-color:rgb(158,240,26);stop-opacity:1"/></linearGradient>
        <linearGradient id="_Linear22" x1="0" y1="0" x2="1" y2="0" gradientUnits="userSpaceOnUse" gradientTransform="matrix(1.33957e-13,2187.69,-2187.69,1.33957e-13,835.173,-1115)"><stop offset="0" style="stop-color:rgb(236,26,240);stop-opacity:1"/><stop offset="0.48" style="stop-color:rgb(240,26,60);stop-opacity:1"/><stop offset="0.83" style="stop-color:rgb(240,212,26);stop-opacity:1"/><stop offset="0.87" style="stop-color:rgb(249,115,22);stop-opacity:1"/><stop offset="1" style="stop-color:rgb(158,240,26);stop-opacity:1"/></linearGradient>
        <linearGradient id="_Linear23" x1="0" y1="0" x2="1" y2="0" gradientUnits="userSpaceOnUse" gradientTransform="matrix(1.33957e-13,2187.69,-2187.69,1.33957e-13,835.173,-1115)"><stop offset="0" style="stop-color:rgb(236,26,240);stop-opacity:1"/><stop offset="0.48" style="stop-color:rgb(240,26,60);stop-opacity:1"/><stop offset="0.83" style="stop-color:rgb(240,212,26);stop-opacity:1"/><stop offset="0.87" style="stop-color:rgb(249,115,22);stop-opacity:1"/><stop offset="1" style="stop-color:rgb(158,240,26);stop-opacity:1"/></linearGradient>
    </defs>
</svg>
