<?xml version="1.0" encoding="UTF-8" standalone="no"?><!DOCTYPE svg PUBLIC "-//W3C//DTD SVG 1.1//EN" "http://www.w3.org/Graphics/SVG/1.1/DTD/svg11.dtd"><svg width="100%" height="100%" viewBox="0 0 367 367" version="1.1" xmlns="http://www.w3.org/2000/svg" xmlns:xlink="http://www.w3.org/1999/xlink" xml:space="preserve" xmlns:serif="http://www.serif.com/" style="fill-rule:evenodd;clip-rule:evenodd;"><path d="M211.809,7.457c-17.491,-9.943 -39.506,-9.943 -56.997,0l-128.317,72.965c-16.427,9.338 -26.492,26.098 -26.495,44.118l-0,117.587c0.003,18.02 10.068,34.78 26.495,44.118l128.317,72.964c17.491,9.943 39.506,9.943 56.997,0l128.318,-72.964c16.427,-9.338 26.492,-26.098 26.494,-44.118l0,-117.587c-0.002,-18.02 -10.067,-34.78 -26.494,-44.118l-128.318,-72.965Z" style="fill:#1a81ef;fill-rule:nonzero;"/><path d="M188.741,115.885c-0,-3 -2.454,-5.468 -5.436,-5.468c-2.982,-0 -5.436,2.468 -5.436,5.468l0,12.761l-14.306,-0c-2.546,-0.001 -5.034,0.769 -7.139,2.209l-12.285,8.415c-0.301,0.205 -0.658,0.315 -1.022,0.313l-29.73,0c-2.981,0 -5.435,2.469 -5.435,5.469c-0,3 2.454,5.469 5.435,5.469l11.43,-0l-24.403,56c-0.943,2.237 -0.324,4.849 1.522,6.416c0.58,0.467 1.167,0.912 2.24,1.612c1.348,0.882 3.276,2.027 5.74,3.157c4.928,2.268 12.045,4.521 20.844,4.521c7.19,0.014 14.299,-1.528 20.844,-4.521c2.464,-1.13 4.392,-2.275 5.74,-3.157c1.087,-0.707 1.667,-1.152 2.247,-1.626c1.862,-1.551 2.482,-4.174 1.515,-6.402l-24.41,-56l6.421,-0c2.544,-0 5.03,-0.773 7.132,-2.21l12.292,-8.414c0.299,-0.204 0.653,-0.313 1.014,-0.314l14.314,0l0,105.729l-32.52,0c-2.982,0 -5.435,2.469 -5.435,5.469c-0,3 2.453,5.469 5.435,5.469l75.912,-0c2.982,-0 5.436,-2.469 5.436,-5.469c-0,-3 -2.454,-5.469 -5.436,-5.469l-32.52,0l-0,-105.729l14.307,0c0.362,0 0.724,0.11 1.014,0.314l12.299,8.414c2.102,1.437 4.588,2.21 7.132,2.21l6.421,-0l-24.409,56c-1.001,2.296 -0.31,5.006 1.666,6.533c0.087,0.066 0,0 0.015,0c0.719,0.545 1.469,1.046 2.247,1.502c1.341,0.817 3.261,1.867 5.725,2.917c6.554,2.756 13.59,4.164 20.692,4.142c7.106,0.021 14.144,-1.39 20.699,-4.149c2.45,-1.043 4.378,-2.093 5.726,-2.91c0.775,-0.46 1.525,-0.961 2.247,-1.502c1.977,-1.527 2.668,-4.237 1.667,-6.533l-24.396,-56l11.437,-0c2.982,-0 5.436,-2.469 5.436,-5.469c-0,-3 -2.454,-5.469 -5.436,-5.469l-29.73,0c-0.361,0 -0.715,-0.109 -1.014,-0.313l-12.3,-8.415c-2.102,-1.439 -4.588,-2.209 -7.131,-2.209l-14.314,-0l-0,-12.761Zm-76.513,90.767c5.704,3.054 12.07,4.645 18.532,4.63c6.462,0.015 12.828,-1.576 18.532,-4.63l-18.532,-42.51l-18.532,42.51Zm105.163,-0.175c0.594,0.292 1.261,0.605 1.993,0.919c3.841,1.626 9.458,3.281 16.466,3.281c6.389,0.018 12.7,-1.418 18.46,-4.2l-18.46,-42.343l-18.459,42.343Z" style="fill:#fff;"/><g><path d="M66.123,183.333c4.34,3.299 7.292,6.424 8.854,9.375c1.997,3.907 2.995,8.551 2.995,13.933l0,46.744c0,4.948 1.432,9.006 4.297,12.175c2.865,3.168 6.424,4.97 10.677,5.404c2.691,0.26 4.471,0.781 5.339,1.562c1.128,1.042 1.692,2.344 1.692,3.906c0,1.65 -0.564,2.973 -1.692,3.972c-1.129,0.998 -2.778,1.497 -4.948,1.497c-6.858,0 -12.587,-2.17 -17.188,-6.51c-6.163,-5.99 -9.245,-13.282 -9.245,-21.875l0,-46.875c0,-4.775 -1.432,-8.789 -4.296,-12.045c-2.865,-3.255 -6.511,-5.056 -10.938,-5.403c-2.431,-0.261 -4.123,-0.868 -5.078,-1.823c-0.955,-0.955 -1.432,-2.301 -1.432,-4.037c-0,-1.649 0.477,-2.951 1.432,-3.906c0.955,-0.955 2.647,-1.562 5.078,-1.823c4.514,-0.347 8.181,-2.148 11.003,-5.403c2.821,-3.256 4.231,-7.27 4.231,-12.045l0,-46.875c0,-8.159 2.605,-14.952 7.813,-20.377c5.208,-5.426 11.458,-8.138 18.75,-8.138c2.083,-0 3.689,0.52 4.818,1.562c1.128,1.042 1.692,2.344 1.692,3.906c0,1.563 -0.564,2.865 -1.692,3.907c-0.782,0.868 -2.561,1.432 -5.339,1.692c-4.34,0.434 -7.921,2.257 -10.742,5.469c-2.821,3.212 -4.232,7.205 -4.232,11.979l0,46.875c0,5.469 -0.868,9.874 -2.604,13.216c-1.736,3.342 -4.818,6.663 -9.245,9.961Z" style="fill:#fff;fill-rule:nonzero;"/><path d="M300.498,183.333c-4.34,3.299 -7.291,6.424 -8.854,9.375c-1.997,3.907 -2.995,8.551 -2.995,13.933l0,46.744c0,4.948 -1.432,9.006 -4.297,12.175c-2.864,3.168 -6.423,4.97 -10.677,5.404c-2.691,0.26 -4.47,0.781 -5.338,1.562c-1.129,1.042 -1.693,2.344 -1.693,3.906c0,1.65 0.564,2.973 1.693,3.972c1.128,0.998 2.777,1.497 4.948,1.497c6.857,0 12.586,-2.17 17.187,-6.51c6.163,-5.99 9.245,-13.282 9.245,-21.875l-0,-46.875c-0,-4.775 1.432,-8.789 4.297,-12.045c2.864,-3.255 6.51,-5.056 10.937,-5.403c2.431,-0.261 4.124,-0.868 5.078,-1.823c0.955,-0.955 1.433,-2.301 1.433,-4.037c-0,-1.649 -0.478,-2.951 -1.433,-3.906c-0.954,-0.955 -2.647,-1.562 -5.078,-1.823c-4.514,-0.347 -8.181,-2.148 -11.002,-5.403c-2.821,-3.256 -4.232,-7.27 -4.232,-12.045l-0,-46.875c-0,-8.159 -2.604,-14.952 -7.813,-20.377c-5.208,-5.426 -11.458,-8.138 -18.75,-8.138c-2.083,-0 -3.689,0.52 -4.817,1.562c-1.129,1.042 -1.693,2.344 -1.693,3.906c0,1.563 0.564,2.865 1.693,3.907c0.781,0.868 2.56,1.432 5.338,1.692c4.341,0.434 7.921,2.257 10.742,5.469c2.822,3.212 4.232,7.205 4.232,11.979l0,46.875c0,5.469 0.868,9.874 2.604,13.216c1.736,3.342 4.818,6.663 9.245,9.961Z" style="fill:#fff;fill-rule:nonzero;"/></g></svg>