<?xml version="1.0" encoding="UTF-8" standalone="no"?><!DOCTYPE svg PUBLIC "-//W3C//DTD SVG 1.1//EN" "http://www.w3.org/Graphics/SVG/1.1/DTD/svg11.dtd"><svg width="100%" height="100%" viewBox="0 0 13892 13892" version="1.1" xmlns="http://www.w3.org/2000/svg" xmlns:xlink="http://www.w3.org/1999/xlink" xml:space="preserve" xmlns:serif="http://www.serif.com/" style="fill-rule:evenodd;clip-rule:evenodd;stroke-linejoin:round;stroke-miterlimit:2;"><g><path d="M6944.46,13888.9c3835.31,0 6944.46,-3109.13 6944.46,-6944.46c-0,-3835.31 -3109.13,-6944.46 -6944.46,-6944.46c-3835.31,0 -6944.46,3109.13 -6944.46,6944.46c-0,3835.31 3109.13,6944.46 6944.46,6944.46Z" style="fill:#1a81ef;"/><path d="M1816.06,6946.54c128.55,97.698 215.965,190.254 262.243,277.668c59.133,115.695 88.699,253.244 88.699,412.647l0,1384.49c0,146.547 42.422,266.742 127.265,360.583c84.843,93.842 190.255,147.19 316.234,160.045c79.701,7.713 132.407,23.139 158.117,46.279c33.423,30.852 50.134,69.417 50.134,115.695c0,48.849 -16.711,88.057 -50.134,117.623c-33.423,29.567 -82.273,44.35 -146.548,44.35c-203.109,0 -372.795,-64.275 -509.059,-192.825c-182.541,-177.4 -273.812,-393.364 -273.812,-647.894l0,-1388.34c0,-141.406 -42.421,-260.315 -127.265,-356.727c-84.843,-96.413 -192.825,-149.761 -323.946,-160.045c-71.988,-7.713 -122.123,-25.711 -150.404,-53.992c-28.281,-28.281 -42.422,-68.131 -42.422,-119.551c0,-48.849 14.141,-87.415 42.422,-115.696c28.281,-28.281 78.416,-46.278 150.404,-53.991c133.692,-10.284 242.317,-63.632 325.875,-160.045c83.557,-96.412 125.336,-215.321 125.336,-356.727l0,-1388.34c0,-241.674 77.13,-442.855 231.391,-603.543c154.26,-160.688 339.372,-241.032 555.337,-241.032c61.704,0 109.268,15.426 142.691,46.278c33.423,30.852 50.134,69.417 50.134,115.696c0,46.278 -16.711,84.843 -50.134,115.695c-23.139,25.71 -75.845,42.421 -158.117,50.134c-128.55,12.855 -234.604,66.846 -318.162,161.974c-83.558,95.127 -125.337,213.393 -125.337,354.798l0,1388.34c0,161.974 -25.71,292.452 -77.13,391.436c-51.42,98.983 -142.691,197.324 -273.812,295.023Zm10256.8,-1.417c-128.55,97.698 -215.964,190.254 -262.242,277.669c-59.133,115.695 -88.7,253.244 -88.7,412.646l0,1384.49c0,146.547 -42.421,266.742 -127.265,360.584c-84.843,93.841 -190.254,147.19 -316.233,160.045c-79.701,7.713 -132.407,23.139 -158.117,46.278c-33.423,30.852 -50.135,69.417 -50.135,115.695c0,48.849 16.712,88.057 50.135,117.624c33.423,29.566 82.272,44.349 146.547,44.349c203.11,0 372.796,-64.275 509.059,-192.825c182.542,-177.399 273.812,-393.364 273.812,-647.893l0,-1388.34c0,-141.405 42.422,-260.314 127.265,-356.727c84.843,-96.413 192.826,-149.761 323.947,-160.045c71.988,-7.713 122.123,-25.71 150.404,-53.991c28.281,-28.281 42.421,-68.132 42.421,-119.552c0,-48.849 -14.14,-87.414 -42.421,-115.695c-28.281,-28.281 -78.416,-46.278 -150.404,-53.991c-133.692,-10.284 -242.317,-63.633 -325.875,-160.045c-83.558,-96.413 -125.337,-215.322 -125.337,-356.727l0,-1388.34c0,-241.675 -77.13,-442.856 -231.39,-603.544c-154.26,-160.688 -339.373,-241.031 -555.337,-241.031c-61.704,-0 -109.268,15.426 -142.691,46.278c-33.423,30.852 -50.135,69.417 -50.135,115.695c0,46.278 16.712,84.843 50.135,115.695c23.139,25.71 75.845,42.422 158.117,50.135c128.55,12.855 234.604,66.846 318.162,161.973c83.557,95.127 125.336,213.393 125.336,354.799l0,1388.34c0,161.973 25.71,292.451 77.13,391.435c51.42,98.984 142.691,197.325 273.812,295.023Z" style="fill:#fff;fill-rule:nonzero;stroke:#fff;stroke-width:218.67px;"/><path d="M10813.5,7111.8l-1406.43,-3230.44c-783.46,-295.982 -1618.37,-449.286 -2461.26,-451.927c-842.88,2.641 -1677.79,155.945 -2461.25,451.927l-1406.43,3230.44l0,334.761c0,734.578 634.886,1339.04 1406.43,1339.04c771.545,-0 1406.43,-604.466 1406.43,-1339.04l-0,-334.761l-1125.14,-2510.71l52.741,-133.904c569.872,-201.72 1168.52,-320.228 1775.62,-351.499l-0,5674.2l-1230.63,0c-192.886,0 -351.608,151.117 -351.608,334.761c0,183.645 158.722,334.761 351.608,334.761l3164.47,0c192.887,0 351.608,-151.116 351.608,-334.761c0,-183.644 -158.721,-334.761 -351.608,-334.761l-1230.63,0l0,-5674.2c607.096,31.271 1205.75,149.779 1775.62,351.499l52.741,133.904l-1125.14,2510.71l-0,334.761c-0,734.578 634.886,1339.04 1406.43,1339.04c771.545,-0 1406.43,-604.466 1406.43,-1339.04l0,-334.761Zm-6328.94,1004.28c-253.161,2.158 -488.739,-126.008 -615.314,-334.761l1230.63,-0c-126.575,208.753 -362.153,336.919 -615.313,334.761Zm738.376,-1004.28l-1582.24,0l843.859,-1790.97l738.376,1790.97Zm4184.13,-1790.97l738.376,1790.97l-1582.24,0l843.859,-1790.97Zm0,2795.25c-253.161,2.158 -488.738,-126.008 -615.314,-334.761l1230.63,-0c-126.576,208.753 -362.153,336.919 -615.314,334.761Z" style="fill:#fff;fill-rule:nonzero;stroke:#fff;stroke-width:10.3px;stroke-linejoin:miter;stroke-miterlimit:4;"/></g></svg>