<?xml version="1.0" encoding="UTF-8" standalone="no"?><!DOCTYPE svg PUBLIC "-//W3C//DTD SVG 1.1//EN" "http://www.w3.org/Graphics/SVG/1.1/DTD/svg11.dtd"><svg width="100%" height="100%" viewBox="0 0 3334 3334" version="1.1" xmlns="http://www.w3.org/2000/svg" xmlns:xlink="http://www.w3.org/1999/xlink" xml:space="preserve" xmlns:serif="http://www.serif.com/" style="fill-rule:evenodd;clip-rule:evenodd;stroke-linejoin:round;stroke-miterlimit:2;"><g><path d="M1666.67,3333.33c920.474,0 1666.67,-746.192 1666.67,-1666.67c0,-920.475 -746.192,-1666.67 -1666.67,-1666.67c-920.475,0 -1666.67,746.192 -1666.67,1666.67c0,920.474 746.192,1666.67 1666.67,1666.67Z" style="fill:#1a81ef;"/><path d="M2684.75,1361.22c-229.028,-763.612 -559.931,-941.738 -1323.54,-712.64c-763.543,229.028 -941.737,559.932 -712.64,1323.54c229.098,763.543 560.001,941.738 1323.54,712.64c763.613,-229.097 941.738,-560.001 712.64,-1323.54m-386.181,495.695l-143.958,48.195l49.861,149.028c20.208,60.278 -12.292,125.556 -72.639,145.764c-13.125,4.445 -26.459,6.32 -39.514,5.972c-47.084,-1.25 -90.487,-31.389 -106.25,-78.611l-49.931,-148.958l-296.876,99.444l49.862,148.959c20.208,60.347 -12.292,125.625 -72.639,145.833c-13.125,4.375 -26.459,6.25 -39.514,5.903c-47.084,-1.18 -90.487,-31.389 -106.251,-78.542l-49.93,-149.028l-143.959,48.264c-13.125,4.375 -26.528,6.25 -39.583,5.903c-47.014,-1.18 -90.417,-31.389 -106.25,-78.611c-20.209,-60.278 12.291,-125.556 72.639,-145.764l144.028,-48.264l-95.764,-285.765l-143.959,48.264c-13.125,4.375 -26.458,6.25 -39.583,5.903c-47.014,-1.18 -90.417,-31.389 -106.251,-78.611c-20.208,-60.278 12.362,-125.556 72.639,-145.764l144.028,-48.264l-49.93,-148.959c-20.209,-60.347 12.291,-125.625 72.639,-145.764c60.347,-20.208 125.625,12.292 145.833,72.639l49.862,148.959l296.945,-99.445l-49.931,-148.959c-20.208,-60.347 12.361,-125.625 72.639,-145.833c60.347,-20.209 125.625,12.361 145.834,72.639l49.861,149.028l144.028,-48.264c60.347,-20.209 125.556,12.361 145.764,72.639c20.208,60.347 -12.292,125.625 -72.639,145.833l-143.959,48.195l95.695,285.834l144.028,-48.264c60.278,-20.139 125.556,12.361 145.764,72.639c20.209,60.347 -12.292,125.625 -72.639,145.833Zm-828.217,-283.424l95.695,285.765l296.945,-99.445l-95.695,-285.764l-296.945,99.444Z" style="fill:#fff;"/></g></svg>