<svg width="408" height="450" viewBox="0 0 408 450" fill="none" xmlns="http://www.w3.org/2000/svg">
<path fill-rule="evenodd" clip-rule="evenodd" d="M274.647 102.88C278.1 94.2612 280 84.8525 280 75C280 33.5786 246.421 0 205 0C163.579 0 130 33.5786 130 75C130 89.6946 134.226 103.402 141.529 114.974L141.381 115.059C128.816 91.238 103.804 75 75 75C33.5786 75 0 108.579 0 150C0 191.421 33.5786 225 75 225C33.5786 225 0 258.579 0 300C0 341.421 33.5786 375 75 375C103.804 375 128.816 358.762 141.381 334.941L141.529 335.026C134.226 346.598 130 360.305 130 375C130 416.421 163.579 450 205 450C246.421 450 280 416.421 280 375C280 365.147 278.1 355.739 274.647 347.12C288.396 364.126 309.428 375 333 375C374.421 375 408 341.421 408 300C408 258.579 374.421 225 333 225C374.421 225 408 191.421 408 150C408 108.579 374.421 75 333 75C309.428 75 288.396 85.8743 274.647 102.88ZM332 224.993C332.333 224.998 332.666 225 333 225C332.666 225 332.333 225.002 332 225.007V225C332 224.998 332 224.996 332 224.993ZM75 225C75.5444 225 76.0879 224.994 76.6299 224.983C77.0874 224.973 77.5444 224.959 78 224.941V225V225.059C77.0049 225.02 76.0049 225 75 225Z" fill="#EF411B"/>
</svg>
