<?xml version="1.0" encoding="UTF-8" standalone="no"?>
<!DOCTYPE svg PUBLIC "-//W3C//DTD SVG 1.1//EN" "http://www.w3.org/Graphics/SVG/1.1/DTD/svg11.dtd">
<svg width="100%" height="100%" viewBox="0 0 734 767" version="1.1" xmlns="http://www.w3.org/2000/svg" xmlns:xlink="http://www.w3.org/1999/xlink" xml:space="preserve" xmlns:serif="http://www.serif.com/" style="fill-rule:evenodd;clip-rule:evenodd;stroke-linejoin:round;stroke-miterlimit:2;">
    <g transform="matrix(1,0,0,1,-33.3333,-33.3333)">
        <path d="M200.467,266.871C204.276,236.747 243.426,195.805 274.496,200.348L274.446,200.298C304.684,206.044 328.62,258.087 342.117,281.488C351.68,298.467 345.47,315.67 336.55,322.929C324.517,332.628 305.7,346.01 309.648,359.447C316.667,383.333 400,466.667 440.987,490.357C456.5,499.323 467.75,475.673 477.357,463.557C484.337,454.237 501.553,448.667 518.493,457.867C543.793,472.6 567.627,489.723 589.667,509C600.673,518.2 603.257,531.797 595.63,546.167C582.197,571.477 543.343,604.853 515.14,598.07C465.88,586.227 266.667,509 202.678,285.267C199.079,274.683 199.985,270.681 200.467,266.871Z" style="fill:white;fill-rule:nonzero;"/>
        <path d="M400,766.667C359.213,766.667 336.647,762.29 300,750L132.507,800L133.333,650C61.552,583.067 33.333,505.89 33.333,400C33.333,197.496 197.496,33.333 400,33.333C602.503,33.333 766.667,197.496 766.667,400C766.667,602.503 602.503,766.667 400,766.667ZM200,621.01L178.798,601.24C123.029,549.24 100,491.103 100,400C100,234.315 234.315,100 400,100C565.687,100 700,234.315 700,400C700,565.687 565.687,700 400,700C367.143,700 337.707,694.295 320.198,689.793C311.704,687.609 294.949,684.99 294.949,684.99L200,708.442L200,621.01Z" style="fill:white;"/>
    </g>
</svg>
